<svg xmlns="http://www.w3.org/2000/svg" viewBox="0 0 512 512" role="img" aria-label="Icone com fundo azul e coracao vermelho">
  <defs>
    <linearGradient id="bg" x1="0" y1="0" x2="1" y2="1">
      <stop offset="0%" stop-color="#1F7AE0" />
      <stop offset="100%" stop-color="#0A5FC8" />
    </linearGradient>
    <filter id="shadow" x="-20%" y="-20%" width="140%" height="140%">
      <feDropShadow dx="0" dy="10" stdDeviation="10" flood-color="#0A2650" flood-opacity="0.25" />
    </filter>
  </defs>

  <rect x="24" y="24" width="464" height="464" rx="96" fill="url(#bg)" />

  <path
    d="M256 398C248 391 171 323 129 274C98 238 90 183 120 146C147 113 197 108 231 141L256 165L281 141C315 108 365 113 392 146C422 183 414 238 383 274C341 323 264 391 256 398Z"
    fill="#E2343B"
    filter="url(#shadow)"
  />

  <path
    d="M256 180L273 163C303 134 347 137 370 166C395 197 386 238 360 270C327 310 272 359 256 373C240 359 185 310 152 270C126 238 117 197 142 166C165 137 209 134 239 163L256 180Z"
    fill="#FF4B53"
  />
</svg>
