<svg xmlns="http://www.w3.org/2000/svg" viewBox="0 0 64 64" role="img" aria-label="Fomentos Sociais">
	<defs>
		<linearGradient id="bg" x1="8" y1="6" x2="58" y2="58" gradientUnits="userSpaceOnUse">
			<stop offset="0" stop-color="#0ea5e9" />
			<stop offset="1" stop-color="#2563eb" />
		</linearGradient>
		<linearGradient id="heart" x1="22" y1="28" x2="42" y2="44" gradientUnits="userSpaceOnUse">
			<stop offset="0" stop-color="#f97316" />
			<stop offset="1" stop-color="#ef4444" />
		</linearGradient>
	</defs>

	<rect x="4" y="4" width="56" height="56" rx="16" fill="url(#bg)" />

	<circle cx="21" cy="25" r="5.5" fill="#f8fafc" />
	<circle cx="43" cy="25" r="5.5" fill="#f8fafc" />

	<path d="M13 43c1.7-6.8 6.2-10.2 12.2-10.2S35.7 36.2 37.4 43" fill="#f8fafc" />
	<path d="M27 43c1.5-5.8 5.4-8.7 10.8-8.7S47.2 37.2 48.7 43" fill="#dbeafe" />

	<path d="M32 48c-5.8-4.1-9-6.9-9-10.2 0-2.8 2.2-4.8 5-4.8 1.7 0 3.1.8 4 2.1.9-1.3 2.3-2.1 4-2.1 2.8 0 5 2 5 4.8 0 3.3-3.2 6.1-9 10.2z" fill="url(#heart)" />
</svg>